<svg width="290" height="23" viewBox="0 0 290 23" fill="none" xmlns="http://www.w3.org/2000/svg">
<path d="M0 21.8907H0.621626C1.16866 21.935 1.71909 21.8709 2.24104 21.7022C2.76299 21.5335 3.24609 21.2635 3.66235 20.9079C4.02219 20.4922 4.29551 20.0096 4.46649 19.4881C4.63747 18.9667 4.70272 18.4167 4.65845 17.87V4.54952C4.60028 3.98182 4.4694 3.42384 4.269 2.88911C4.10619 2.49167 3.84926 2.13917 3.52005 1.8616C2.69013 1.23834 1.65809 0.941408 0.621626 1.02767H0V0.439453H13.9829V1.02767H13.3612C12.8153 0.983171 12.266 1.04716 11.7452 1.2159C11.2244 1.38464 10.7427 1.65476 10.328 2.01051C9.96863 2.42481 9.69609 2.90625 9.52633 3.42663C9.35657 3.947 9.29301 4.49583 9.33938 5.04094V17.87C9.29612 18.4155 9.36186 18.9641 9.53282 19.4842C9.70378 20.0043 9.97657 20.4856 10.3355 20.9004C10.7454 21.2519 11.2209 21.5196 11.735 21.6883C12.249 21.8569 12.7915 21.9232 13.3313 21.8833H13.9529V22.5013H0V21.8907Z" fill="white"/>
<path d="M26.5053 0.439453H35.4253L50.8536 16.3362V6.82793C50.8754 5.7819 50.671 4.7434 50.2545 3.78261C49.8965 2.96344 49.2955 2.27244 48.5319 1.80203C48.1577 1.56216 47.7484 1.38132 47.3186 1.26593C46.7547 1.13829 46.181 1.05858 45.6035 1.02767V0.439453H56.6055V1.02767H56.3809C55.6978 0.982731 55.0135 1.09353 54.38 1.35162C53.7466 1.6097 53.1809 2.00824 52.726 2.51682C51.8033 3.79573 51.3583 5.35461 51.4678 6.92472V22.7321H50.9285L31.7854 3.15716V16.2692C31.7431 17.3185 31.898 18.3664 32.2423 19.3592C32.5354 20.1013 33.0605 20.7304 33.7402 21.1536C34.3674 21.511 35.0648 21.7294 35.7848 21.7939C36.4179 21.8836 37.0555 21.9383 37.6946 21.9577V22.5385H26.1084V21.9577C27.108 21.9332 28.094 21.721 29.0143 21.3323C29.7255 21.0075 30.3059 20.4541 30.662 19.7612C31.0496 18.9379 31.232 18.0337 31.1938 17.1254V4.66121C31.2244 3.97549 31.0554 3.29554 30.7069 2.70297C30.3402 2.15932 29.8186 1.73676 29.209 1.48931C28.4541 1.18202 27.6429 1.03493 26.8274 1.05745H26.5353L26.5053 0.439453Z" fill="white"/>
<path d="M67.4727 0.439453H79.0289V1.02767C78.3169 0.988805 77.6058 1.11897 76.9543 1.4074C76.7448 1.51286 76.5709 1.67684 76.4538 1.87922C76.3367 2.08159 76.2816 2.31354 76.2953 2.54661C76.3032 3.08951 76.3993 3.62758 76.5799 4.14L81.2683 17.0435L85.762 5.87487C85.499 5.06087 85.1709 4.26909 84.7808 3.50711C84.4989 2.99484 84.1375 2.52998 83.7098 2.12964C83.3826 1.76774 82.9784 1.48287 82.5265 1.29572C82.0461 1.12563 81.5384 1.04486 81.0286 1.05745V0.439453H93.0717V1.02767H92.48C91.7005 0.979374 90.9227 1.1469 90.2332 1.51164C89.9842 1.64793 89.7781 1.85025 89.638 2.09608C89.4978 2.34192 89.429 2.62161 89.4393 2.904C89.4363 3.30455 89.5127 3.70176 89.664 4.07299L94.4423 17.0435L99.2355 5.16752C99.46 4.61242 99.5867 4.02304 99.61 3.42521C99.6289 3.07526 99.5527 2.72671 99.3892 2.41619C99.2258 2.10567 98.9813 1.84465 98.6813 1.66056C97.7972 1.20399 96.8082 0.98577 95.8128 1.02767V0.439453H104.725V1.02767C104.235 1.05015 103.751 1.14294 103.287 1.30316C102.853 1.49469 102.447 1.74528 102.082 2.04774C101.056 2.9572 100.282 4.11353 99.8347 5.40579L92.862 23.0374H92.2703L86.1289 6.55988L79.5157 23.0002H78.9016L72.4831 5.53236C72.1054 4.26229 71.4594 3.08698 70.5883 2.08497C70.2595 1.74248 69.8627 1.47164 69.423 1.28964C68.9834 1.10763 68.5105 1.01842 68.0344 1.02767H67.4727V0.439453Z" fill="white"/>
<path d="M116.933 0.439453H140.548V8.9872H140.053C139.743 7.84218 139.353 6.7201 138.885 5.62916C138.529 4.8735 138.079 4.16553 137.544 3.522C136.962 2.79604 136.215 2.21696 135.365 1.83181C133.85 1.25804 132.237 0.984844 130.617 1.02767H126.243V11.5188H127.419C128.248 11.5364 129.067 11.3399 129.797 10.9483C130.527 10.5568 131.142 9.9837 131.583 9.28503C132.143 8.44971 132.542 7.518 132.759 6.53754C132.925 5.87929 133.042 5.20988 133.111 4.53463H133.665V18.9869H133.111C132.983 18.2051 132.833 17.4977 132.654 16.7531C132.521 16.1729 132.325 15.6087 132.07 15.0704C131.836 14.6109 131.555 14.1767 131.231 13.7748C130.737 13.1878 130.112 12.7237 129.406 12.4199C128.7 12.116 127.932 11.9808 127.164 12.0251H126.243V21.928H129.898C130.876 21.9336 131.853 21.8564 132.818 21.6971C133.621 21.5494 134.402 21.2991 135.14 20.9526C135.841 20.6261 136.494 20.2052 137.08 19.7017C138.128 18.811 138.956 17.6926 139.499 16.433C139.908 15.4443 140.258 14.4323 140.548 13.4025H141.132V22.4864H116.963V21.9056H117.57C120.256 21.9056 121.599 20.5555 121.599 17.8551V5.04094C121.642 4.4938 121.573 3.94377 121.398 3.4233C121.223 2.90283 120.945 2.42245 120.581 2.01051C120.163 1.65432 119.679 1.38403 119.156 1.21532C118.632 1.04661 118.081 0.982824 117.532 1.02767H116.926L116.933 0.439453Z" fill="white"/>
<path d="M166.266 0H166.851L175.786 19.2994C176.03 19.8399 176.353 20.3417 176.744 20.7886C177.072 21.1584 177.482 21.4466 177.943 21.63C178.445 21.8153 178.979 21.9038 179.515 21.8906H180.107V22.5086H167.24V21.8906H168.925C169.552 21.944 170.183 21.8417 170.76 21.5927C170.946 21.4891 171.099 21.3359 171.203 21.1505C171.306 20.965 171.355 20.7546 171.344 20.5429C171.327 20.1728 171.248 19.8081 171.112 19.4633C170.955 19.0463 170.618 18.2794 170.101 17.1774C170.101 17.1104 170.019 17.0062 169.959 16.8572C169.899 16.7083 169.824 16.5743 169.757 16.4328L169.39 15.6287H159.983L159.234 17.2668C159.009 17.8022 158.891 18.3765 158.889 18.9569C158.895 19.4653 159.034 19.9634 159.294 20.4014C159.541 20.8477 159.906 21.2184 160.35 21.4736C160.582 21.6203 160.834 21.7332 161.099 21.8087C161.418 21.8832 161.744 21.9232 162.072 21.9278V22.5458H153.085V21.8906C153.62 21.845 154.146 21.7298 154.65 21.5481C155.114 21.3396 155.549 21.0745 155.946 20.7588C157.069 19.8951 158.165 18.267 159.234 15.8744L166.266 0ZM164.581 5.16737L160.275 15.0032H169.09L164.581 5.16737Z" fill="white"/>
<path d="M212.656 0.871161H213.21V8.43607H212.656C212.152 6.89939 211.392 5.45738 210.409 4.16964C209.751 3.41597 208.968 2.77898 208.095 2.28586C207.119 1.72146 206.071 1.29067 204.979 1.00519C203.835 0.691349 202.654 0.533544 201.467 0.536102C200.668 0.521777 199.872 0.645217 199.115 0.900945C198.459 1.12647 197.861 1.49249 197.363 1.97314C197.029 2.30363 196.755 2.68905 196.554 3.11234C196.363 3.48929 196.261 3.90418 196.254 4.326C196.252 4.68682 196.328 5.04392 196.475 5.37375C196.622 5.70358 196.838 5.99867 197.108 6.23957C197.448 6.5433 197.831 6.79432 198.246 6.98414C198.863 7.26959 199.502 7.5061 200.156 7.69149C200.905 7.92231 202.021 8.2127 203.422 8.54776C203.666 8.6342 203.916 8.70142 204.171 8.74879L204.92 8.94238L206.155 9.25511C207.717 9.62342 209.251 10.0986 210.746 10.6772C211.666 11.0576 212.503 11.6113 213.21 12.3079C213.738 12.7934 214.157 13.3847 214.439 14.0427C214.736 14.7214 214.886 15.4545 214.881 16.1946C214.875 16.9797 214.707 17.7554 214.386 18.473C214.062 19.233 213.585 19.9195 212.986 20.4908C212.199 21.3162 211.23 21.9484 210.155 22.3373C208.887 22.7523 207.558 22.9536 206.223 22.933C205.248 22.9373 204.276 22.8349 203.324 22.6277C202.191 22.3446 201.083 21.966 200.014 21.496C199.379 21.2356 198.732 21.007 198.074 20.811C197.666 20.691 197.242 20.6283 196.816 20.6248C196.128 20.6069 195.454 20.8164 194.899 21.2205C194.362 21.6396 193.995 22.237 193.865 22.9032H193.303V12.6578H193.865C194.09 14.4819 194.857 16.1979 196.067 17.5869C196.909 18.5249 197.883 19.3373 198.958 19.9994C200.102 20.7327 201.339 21.3135 202.635 21.7268C203.811 22.1203 205.042 22.3288 206.283 22.3448C207.248 22.3555 208.206 22.1837 209.106 21.8385C209.886 21.5573 210.575 21.0709 211.098 20.4312C211.579 19.8616 211.844 19.1423 211.847 18.3985C211.843 17.9903 211.754 17.5873 211.587 17.2146C211.419 16.8419 211.177 16.5073 210.874 16.2318C210.525 15.9155 210.131 15.6521 209.705 15.45C209.115 15.1579 208.504 14.909 207.878 14.7054C207.129 14.4523 206.103 14.1544 204.8 13.8045L203.204 13.4024C200.708 12.7372 198.993 12.221 198.059 11.8537C197.179 11.5531 196.333 11.1613 195.535 10.6847C194.923 10.2867 194.387 9.78229 193.955 9.19554C193.32 8.40456 192.974 7.42274 192.974 6.41082C192.964 5.22405 193.348 4.06722 194.067 3.11979C194.864 2.09596 195.925 1.30601 197.138 0.833933C198.523 0.269539 200.008 -0.013989 201.504 5.63887e-06C204.127 0.0589715 206.697 0.748759 208.994 2.01037C209.57 2.34554 210.201 2.57505 210.859 2.68793C211.705 2.68793 212.297 2.07738 212.656 0.871161Z" fill="white"/>
<path d="M227.073 0.439453H253.099V11.6081H252.59C252.39 9.04752 251.514 6.58467 250.051 4.46762C249.345 3.41107 248.386 2.54514 247.261 1.94739C246.136 1.34965 244.879 1.03875 243.603 1.04256H242.442V17.87C242.442 20.5505 243.783 21.8833 246.456 21.8833H249.812V22.5013H230.429V21.8907H233.747C236.443 21.8907 237.783 20.5579 237.783 17.8775V1.02767H236.353C233.709 1.02767 231.552 2.25622 229.905 4.75056C229.038 6.07731 228.409 7.54356 228.047 9.084C227.859 9.93649 227.722 10.7992 227.635 11.6677H227.073V0.439453Z" fill="white"/>
<path d="M276.16 0H276.751L285.679 19.2994C285.923 19.8399 286.246 20.3417 286.637 20.7886C286.966 21.1568 287.377 21.4447 287.836 21.63C288.341 21.8159 288.877 21.9043 289.416 21.8906H290V22.5086H277.111V21.8906H278.788C279.418 21.9475 280.052 21.845 280.631 21.5927C280.817 21.4891 280.97 21.3359 281.073 21.1505C281.176 20.965 281.225 20.7546 281.215 20.5429C281.201 20.1724 281.122 19.8071 280.983 19.4633C280.833 19.0463 280.496 18.2794 279.972 17.1774L279.829 16.8572C279.769 16.7133 279.702 16.5718 279.627 16.4328L279.26 15.6287H269.853L269.142 17.2668C268.911 17.8007 268.791 18.3757 268.79 18.9569C268.795 19.4653 268.935 19.9634 269.194 20.4014C269.442 20.8477 269.807 21.2184 270.25 21.4736C270.483 21.619 270.735 21.7317 270.999 21.8087C271.319 21.8827 271.645 21.9227 271.973 21.9278V22.5458H262.956V21.8906C264.01 21.8426 265.017 21.444 265.817 20.7588C266.94 19.8951 268.036 18.267 269.104 15.8744L276.16 0ZM274.474 5.16737L270.123 15.0032H278.938L274.474 5.16737Z" fill="white"/>
<path d="M109.908 14.1025C111.232 14.1025 112.305 13.0357 112.305 11.7198C112.305 10.4039 111.232 9.33716 109.908 9.33716C108.584 9.33716 107.511 10.4039 107.511 11.7198C107.511 13.0357 108.584 14.1025 109.908 14.1025Z" fill="white"/>
</svg>
